<?xml version="1.0" encoding="UTF-8"?>
<svg id="Layer_2" data-name="Layer 2" xmlns="http://www.w3.org/2000/svg" viewBox="0 0 4535.2 4535.2">
  <defs>
    <style>
      .cls-1 {
        fill: #fff;
      }

      .cls-2 {
        fill: #009884;
      }

      .cls-3 {
        fill: #ffe000;
      }

      .cls-4 {
        fill: #002218;
      }
    </style>
  </defs>
  <g id="Layer_1-2" data-name="Layer 1">
    <rect class="cls-4" width="4535.2" height="4535.2"/>
    <path class="cls-2" d="M1495.05,3651.85h-2.16v-4.24c.66,1.41,1.32,2.83,2.16,4.24Z"/>
    <path class="cls-3" d="M1495.05,3651.85h-2.16v-4.24c.66,1.41,1.32,2.83,2.16,4.24Z"/>
    <path class="cls-1" d="M3899.55,2312.41l-16.77-8.3-18.92-11.29-134.95-74.2c-30.37,130.47-144.74,214.13-284.84,214.13-163,0-295.8-132.79-295.8-295.96s132.79-295.8,295.8-295.8c121.17,0,225.42,73.2,271.4,177.61l357.54-225.92c-122-221.93-358.21-372.82-628.94-372.82-395.23,0-716.92,321.69-716.92,716.92s321.69,717.08,716.92,717.08c293.47,0,546.44-177.28,657.16-430.42l-201.68-111.05Z"/>
    <path class="cls-1" d="M2401.57,831.76l-8.54,17.25-11.61,19.46-76.33,138.82c134.21,31.24,220.27,148.89,220.27,293,0,167.68-136.6,304.27-304.45,304.27s-304.27-136.6-304.27-304.27c0-124.64,75.3-231.88,182.7-279.17l-232.39-367.79c-228.29,125.5-383.5,368.47-383.5,646.96,0,406.55,330.91,737.46,737.46,737.46s737.63-330.91,737.63-737.46c0-301.88-182.36-562.1-442.75-675.99l-114.23,207.46Z"/>
    <path class="cls-1" d="M2881.49,2756.93c-126.38-226.32-368.36-379.74-645.4-379.74-407.38,0-677.49,347.25-677.49,754.46,0,302.37,99.57,496.42,360.38,610.49l9.1-170.53,3.41-26.15-10.87-14.32,5.96-223.96c-134.43-31.29,4.57-46.99,4.57-191.33,0-43.54,9.19-84.98,25.74-122.49v-132.3c36.68-.98,75.26-1.76,115.74-2.36,47.27-30.14,103.37-47.62,163.46-47.62s114.51,17,161.34,46.36c86.05,53.94,143.42,149.65,143.42,258.41,0,124.84-75.42,232.25-182.99,279.62l232.76,368.38c228.66-125.7,384.12-369.06,384.12-648,0-130.17-33.87-252.59-93.25-358.92Z"/>
    <path class="cls-1" d="M839.22,1985.18l17.22,8.53,19.44,11.59,138.63,76.22c31.2-134.02,148.69-219.96,292.6-219.96,167.44,0,303.85,136.41,303.85,304.02,0,167.44-136.41,303.85-303.85,303.85-124.47,0-231.56-75.2-278.79-182.45l-367.28,232.07c125.32,227.97,367.96,382.97,646.07,382.97,405.99,0,736.44-330.45,736.44-736.44,0-406.16-330.45-736.61-736.44-736.61-301.46,0-561.33,182.11-675.06,442.14l207.17,114.07Z"/>
    <path class="cls-2" d="M3197.91,2124.22c0,239.92-66.21,422.13-198.24,546.62-24.71,23.2-51.4,44.23-80.26,63.19-12.26,8.02-24.9,15.66-37.92,22.9-77.7,43.24-168.91,72.55-273.68,87.82-7.26,1.03-14.61,2.07-22.06,3.01-3.78,.47-7.55,.95-11.32,1.42-21.41,2.55-43.38,4.43-65.92,5.85-27.82,1.69-56.4,2.54-85.82,2.54-8.48-.05-16.9-.09-25.26-.13-119.27-.57-227.53-.19-324.8,1.26-40.48,.6-79.06,1.38-115.74,2.36v932.82h-428.16c-17.36-32.16-29.05-67.81-33.68-105.63-1.41-11.88-2.16-24.05-2.16-36.4h2.16c-.84-1.42-1.5-2.83-2.16-4.25V1428.97h929.8c139.95,0,261.42,18.2,364.41,54.79,82.9,29.34,153.72,70.45,212.57,123.46,35.56,31.87,66.3,67.71,92.33,107.51,70.54,107.79,105.91,244.36,105.91,409.49Z"/>
    <rect class="cls-2" x="1492.89" y="3329.88" width="464" height="464"/>
  </g>
</svg>